<?xml version="1.0" encoding="UTF-8"?>
<svg id="Layer_2" data-name="Layer 2" xmlns="http://www.w3.org/2000/svg" viewBox="0 0 143.47 94.57">
  <defs>
    <style>
      .cls-1 {
        fill: none;
        stroke: #fff;
        stroke-linecap: round;
        stroke-linejoin: round;
        stroke-width: 10px;
      }
    </style>
  </defs>
  <g id="Layer_1-2" data-name="Layer 1">
    <g id="Generative_Object" data-name="Generative Object">
      <g>
        <polyline class="cls-1" points="95.16 46.29 137.84 85.66 138.07 85.87 138.3 86.08"/>
        <path class="cls-1" d="M5.05,8.72l59.12,48.82c4.57,2.97,10.61,2.9,15.18-.06,19.72-12.8,38.96-35.12,58.89-48.54l.24-.2"/>
        <path class="cls-1" d="M5.31,85.63c2.5,1.63,4.63,3.64,7.74,3.94h117.1c3.1-.18,5.49-2.11,8.15-3.49"/>
        <line class="cls-1" x1="48.35" y1="46.29" x2="5.31" y2="85.63"/>
        <polyline class="cls-1" points="5.05 8.72 5 9.05 5.25 85.32 5.31 85.63"/>
        <path class="cls-1" d="M138.47,8.74l-.31-.17c-2.6-1.39-4.98-3.29-8.02-3.57H13.36c-3.12.32-5.59,2.34-8.31,3.72"/>
        <polyline class="cls-1" points="138.47 8.74 138.47 9.05 138.3 85.46 138.3 86.08"/>
      </g>
    </g>
  </g>
</svg>